# xmcd
#
# Track frame offsets:
#	150
#	63964
#	111711
#	135014
#	147165
#
# Disc length: 2559 seconds
#
# Revision: 1
# Processed by: cddbd v1.5.1PL0 Copyright (c) Steve Scherf et al.
# Submitted via: audiograbber 1.83.01
#
DISCID=4209fd05
DTITLE=Led Zeppelin - No Quarter, cd 4:  Live at Seattle Center Colliseum, 21 M
DTITLE=arch 1975
DYEAR=1900
DGENRE=English Occult Post-Blues
TTITLE0=Stairway to Heaven
TTITLE1=Whole Lotta Love - The Crunge
TTITLE2=Black Dog
TTITLE3=Communication Breakdown
TTITLE4=Heartbreaker
EXTD=
EXTT0=
EXTT1=
EXTT2=
EXTT3=
EXTT4=
PLAYORDER=
